<svg xmlns="http://www.w3.org/2000/svg" xmlns:xlink="http://www.w3.org/1999/xlink" width="500" zoomAndPan="magnify" viewBox="0 0 375 374.999991" height="500" preserveAspectRatio="xMidYMid meet" version="1.0"><defs><g/><clipPath id="9dd9d74757"><path d="M 303.578125 130.046875 L 332.078125 130.046875 L 332.078125 171.296875 L 303.578125 171.296875 Z M 303.578125 130.046875 " clip-rule="nonzero"/></clipPath></defs><g clip-path="url(#9dd9d74757)"><path fill="#ff3131" d="M 317.828125 130.046875 C 309.960938 130.046875 303.578125 136.511719 303.578125 144.484375 C 303.578125 155.3125 317.828125 171.296875 317.828125 171.296875 C 317.828125 171.296875 332.074219 155.3125 332.074219 144.484375 C 332.074219 136.511719 325.695312 130.046875 317.828125 130.046875 Z M 317.828125 149.640625 C 315.019531 149.640625 312.738281 147.332031 312.738281 144.484375 C 312.738281 141.636719 315.019531 139.328125 317.828125 139.328125 C 320.636719 139.328125 322.917969 141.636719 322.917969 144.484375 C 322.917969 147.332031 320.636719 149.640625 317.828125 149.640625 Z M 317.828125 149.640625 " fill-opacity="1" fill-rule="nonzero"/></g><g fill="#000000" fill-opacity="1"><g transform="translate(9.263114, 197.300013)"><g><path d="M 10.953125 -23.96875 C 14.035156 -23.96875 16.8125 -23.148438 19.28125 -21.515625 L 17.609375 -17.984375 C 15.179688 -19.460938 12.859375 -20.203125 10.640625 -20.203125 C 9.441406 -20.203125 8.492188 -19.984375 7.796875 -19.546875 C 7.109375 -19.117188 6.765625 -18.507812 6.765625 -17.71875 C 6.765625 -16.925781 7.082031 -16.25 7.71875 -15.6875 C 8.351562 -15.132812 9.144531 -14.726562 10.09375 -14.46875 C 11.050781 -14.207031 12.082031 -13.878906 13.1875 -13.484375 C 14.300781 -13.085938 15.332031 -12.664062 16.28125 -12.21875 C 17.238281 -11.78125 18.023438 -11.085938 18.640625 -10.140625 C 19.265625 -9.203125 19.578125 -8.066406 19.578125 -6.734375 C 19.578125 -4.648438 18.742188 -2.984375 17.078125 -1.734375 C 15.421875 -0.484375 13.265625 0.140625 10.609375 0.140625 C 8.796875 0.140625 7.035156 -0.195312 5.328125 -0.875 C 3.628906 -1.5625 2.148438 -2.484375 0.890625 -3.640625 L 2.625 -7.109375 C 3.820312 -5.992188 5.140625 -5.132812 6.578125 -4.53125 C 8.015625 -3.9375 9.378906 -3.640625 10.671875 -3.640625 C 12.078125 -3.640625 13.171875 -3.894531 13.953125 -4.40625 C 14.734375 -4.914062 15.125 -5.625 15.125 -6.53125 C 15.125 -7.34375 14.804688 -8.023438 14.171875 -8.578125 C 13.535156 -9.140625 12.742188 -9.550781 11.796875 -9.8125 C 10.847656 -10.070312 9.816406 -10.390625 8.703125 -10.765625 C 7.585938 -11.140625 6.554688 -11.535156 5.609375 -11.953125 C 4.660156 -12.367188 3.867188 -13.039062 3.234375 -13.96875 C 2.597656 -14.90625 2.28125 -16.03125 2.28125 -17.34375 C 2.28125 -19.351562 3.070312 -20.957031 4.65625 -22.15625 C 6.238281 -23.363281 8.335938 -23.96875 10.953125 -23.96875 Z M 10.953125 -23.96875 "/></g></g></g><g fill="#000000" fill-opacity="1"><g transform="translate(30.408693, 197.300013)"><g><path d="M 23.359375 -23.796875 L 23.359375 -9.859375 C 23.359375 -6.753906 22.4375 -4.304688 20.59375 -2.515625 C 18.757812 -0.722656 16.234375 0.171875 13.015625 0.171875 C 9.796875 0.171875 7.265625 -0.722656 5.421875 -2.515625 C 3.578125 -4.304688 2.65625 -6.753906 2.65625 -9.859375 L 2.65625 -23.796875 L 6.65625 -23.796875 L 6.65625 -9.859375 C 6.65625 -7.867188 7.226562 -6.300781 8.375 -5.15625 C 9.519531 -4.007812 11.082031 -3.4375 13.0625 -3.4375 C 15.007812 -3.4375 16.539062 -4 17.65625 -5.125 C 18.78125 -6.257812 19.34375 -7.835938 19.34375 -9.859375 L 19.34375 -23.796875 Z M 23.359375 -23.796875 "/></g></g></g><g fill="#000000" fill-opacity="1"><g transform="translate(56.381721, 197.300013)"><g><path d="M 3.125 -23.796875 L 12.609375 -23.796875 C 15.609375 -23.796875 17.925781 -23.085938 19.5625 -21.671875 C 21.207031 -20.253906 22.03125 -18.253906 22.03125 -15.671875 C 22.03125 -12.972656 21.207031 -10.878906 19.5625 -9.390625 C 17.925781 -7.910156 15.609375 -7.171875 12.609375 -7.171875 L 7.140625 -7.171875 L 7.140625 0 L 3.125 0 Z M 7.140625 -20.203125 L 7.140625 -10.78125 L 12.4375 -10.78125 C 16.269531 -10.78125 18.1875 -12.378906 18.1875 -15.578125 C 18.1875 -18.660156 16.269531 -20.203125 12.4375 -20.203125 Z M 7.140625 -20.203125 "/></g></g></g><g fill="#000000" fill-opacity="1"><g transform="translate(79.261103, 197.300013)"><g><path d="M 18.21875 0 L 13.875 -7.203125 C 13.644531 -7.179688 13.28125 -7.171875 12.78125 -7.171875 L 7.140625 -7.171875 L 7.140625 0 L 3.125 0 L 3.125 -23.796875 L 12.78125 -23.796875 C 15.820312 -23.796875 18.179688 -23.085938 19.859375 -21.671875 C 21.535156 -20.253906 22.375 -18.253906 22.375 -15.671875 C 22.375 -13.765625 21.945312 -12.15625 21.09375 -10.84375 C 20.25 -9.53125 19.03125 -8.566406 17.4375 -7.953125 L 22.78125 0 Z M 7.140625 -10.78125 L 12.78125 -10.78125 C 16.632812 -10.78125 18.5625 -12.378906 18.5625 -15.578125 C 18.5625 -18.660156 16.632812 -20.203125 12.78125 -20.203125 L 7.140625 -20.203125 Z M 7.140625 -10.78125 "/></g></g></g><g fill="#000000" fill-opacity="1"><g transform="translate(103.840286, 197.300013)"><g><path d="M 20.125 -20.203125 L 7.140625 -20.203125 L 7.140625 -13.765625 L 18.765625 -13.765625 L 18.765625 -10.171875 L 7.140625 -10.171875 L 7.140625 -3.609375 L 20.53125 -3.609375 L 20.53125 0 L 3.125 0 L 3.125 -23.796875 L 20.125 -23.796875 Z M 20.125 -20.203125 "/></g></g></g><g fill="#000000" fill-opacity="1"><g transform="translate(126.14173, 197.300013)"><g><path d="M 28.28125 0 L 24.578125 0 L 24.546875 -17.78125 L 17.03125 -2.484375 L 14.421875 -2.484375 L 6.90625 -17.78125 L 6.90625 0 L 3.125 0 L 3.125 -23.796875 L 7.890625 -23.796875 L 15.734375 -7.984375 L 23.5625 -23.796875 L 28.28125 -23.796875 Z M 28.28125 0 "/></g></g></g><g fill="#000000" fill-opacity="1"><g transform="translate(157.588124, 197.300013)"><g><path d="M 20.125 -20.203125 L 7.140625 -20.203125 L 7.140625 -13.765625 L 18.765625 -13.765625 L 18.765625 -10.171875 L 7.140625 -10.171875 L 7.140625 -3.609375 L 20.53125 -3.609375 L 20.53125 0 L 3.125 0 L 3.125 -23.796875 L 20.125 -23.796875 Z M 20.125 -20.203125 "/></g></g></g><g fill="#000000" fill-opacity="1"><g transform="translate(179.889567, 197.300013)"><g/></g></g><g fill="#000000" fill-opacity="1"><g transform="translate(188.660559, 197.300013)"><g><path d="M 23.765625 0 L 19.75 0 L 19.75 -9.859375 L 7.140625 -9.859375 L 7.140625 0 L 3.125 0 L 3.125 -23.796875 L 7.140625 -23.796875 L 7.140625 -13.46875 L 19.75 -13.46875 L 19.75 -23.796875 L 23.765625 -23.796875 Z M 23.765625 0 "/></g></g></g><g fill="#000000" fill-opacity="1"><g transform="translate(215.551461, 197.300013)"><g><path d="M 4.796875 -20.453125 C 7.222656 -22.753906 10.210938 -23.90625 13.765625 -23.90625 C 17.328125 -23.90625 20.320312 -22.753906 22.75 -20.453125 C 25.175781 -18.148438 26.390625 -15.296875 26.390625 -11.890625 C 26.390625 -8.492188 25.175781 -5.632812 22.75 -3.3125 C 20.320312 -0.988281 17.328125 0.171875 13.765625 0.171875 C 10.210938 0.171875 7.222656 -0.988281 4.796875 -3.3125 C 2.367188 -5.632812 1.15625 -8.492188 1.15625 -11.890625 C 1.15625 -15.296875 2.367188 -18.148438 4.796875 -20.453125 Z M 13.796875 -20.296875 C 11.441406 -20.296875 9.425781 -19.484375 7.75 -17.859375 C 6.070312 -16.242188 5.234375 -14.253906 5.234375 -11.890625 C 5.234375 -9.535156 6.078125 -7.535156 7.765625 -5.890625 C 9.453125 -4.253906 11.460938 -3.4375 13.796875 -3.4375 C 16.140625 -3.4375 18.132812 -4.253906 19.78125 -5.890625 C 21.4375 -7.535156 22.265625 -9.535156 22.265625 -11.890625 C 22.265625 -14.253906 21.4375 -16.242188 19.78125 -17.859375 C 18.132812 -19.484375 16.140625 -20.296875 13.796875 -20.296875 Z M 13.796875 -20.296875 "/></g></g></g><g fill="#000000" fill-opacity="1"><g transform="translate(243.088301, 197.300013)"><g><path d="M 7.140625 -3.640625 L 17.4375 -3.640625 L 17.4375 0 L 3.125 0 L 3.125 -23.796875 L 7.140625 -23.796875 Z M 7.140625 -3.640625 "/></g></g></g><g fill="#000000" fill-opacity="1"><g transform="translate(261.242223, 197.300013)"><g><path d="M 7.140625 0 L 3.125 0 L 3.125 -23.796875 L 7.140625 -23.796875 Z M 7.140625 0 "/></g></g></g><g fill="#000000" fill-opacity="1"><g transform="translate(271.509038, 197.300013)"><g><path d="M 3.125 -23.796875 L 12.890625 -23.796875 C 16.441406 -23.796875 19.378906 -22.671875 21.703125 -20.421875 C 24.023438 -18.179688 25.1875 -15.335938 25.1875 -11.890625 C 25.1875 -8.453125 24.019531 -5.609375 21.6875 -3.359375 C 19.351562 -1.117188 16.382812 0 12.78125 0 L 3.125 0 Z M 7.140625 -20.203125 L 7.140625 -3.609375 L 12.984375 -3.609375 C 15.316406 -3.609375 17.257812 -4.382812 18.8125 -5.9375 C 20.363281 -7.488281 21.140625 -9.460938 21.140625 -11.859375 C 21.140625 -14.265625 20.34375 -16.253906 18.75 -17.828125 C 17.15625 -19.410156 15.175781 -20.203125 12.8125 -20.203125 Z M 7.140625 -20.203125 "/></g></g></g><g fill="#000000" fill-opacity="1"><g transform="translate(297.856013, 197.300013)"><g><path d="M 18.5 -5.375 L 6.5 -5.375 L 4.21875 0 L 0.03125 0 L 10.546875 -23.796875 L 14.65625 -23.796875 L 25.0625 0 L 20.78125 0 Z M 16.96875 -8.9375 L 12.484375 -19.515625 L 7.984375 -8.9375 Z M 16.96875 -8.9375 "/></g></g></g><g fill="#000000" fill-opacity="1"><g transform="translate(322.945146, 197.300013)"><g><path d="M 12.890625 -7.921875 L 12.890625 0 L 8.90625 0 L 8.90625 -7.78125 L 0.03125 -23.796875 L 4.078125 -23.796875 L 10.875 -12.203125 L 17.546875 -23.796875 L 21.625 -23.796875 Z M 12.890625 -7.921875 "/></g></g></g><g fill="#000000" fill-opacity="1"><g transform="translate(344.600662, 197.300013)"><g><path d="M 10.953125 -23.96875 C 14.035156 -23.96875 16.8125 -23.148438 19.28125 -21.515625 L 17.609375 -17.984375 C 15.179688 -19.460938 12.859375 -20.203125 10.640625 -20.203125 C 9.441406 -20.203125 8.492188 -19.984375 7.796875 -19.546875 C 7.109375 -19.117188 6.765625 -18.507812 6.765625 -17.71875 C 6.765625 -16.925781 7.082031 -16.25 7.71875 -15.6875 C 8.351562 -15.132812 9.144531 -14.726562 10.09375 -14.46875 C 11.050781 -14.207031 12.082031 -13.878906 13.1875 -13.484375 C 14.300781 -13.085938 15.332031 -12.664062 16.28125 -12.21875 C 17.238281 -11.78125 18.023438 -11.085938 18.640625 -10.140625 C 19.265625 -9.203125 19.578125 -8.066406 19.578125 -6.734375 C 19.578125 -4.648438 18.742188 -2.984375 17.078125 -1.734375 C 15.421875 -0.484375 13.265625 0.140625 10.609375 0.140625 C 8.796875 0.140625 7.035156 -0.195312 5.328125 -0.875 C 3.628906 -1.5625 2.148438 -2.484375 0.890625 -3.640625 L 2.625 -7.109375 C 3.820312 -5.992188 5.140625 -5.132812 6.578125 -4.53125 C 8.015625 -3.9375 9.378906 -3.640625 10.671875 -3.640625 C 12.078125 -3.640625 13.171875 -3.894531 13.953125 -4.40625 C 14.734375 -4.914062 15.125 -5.625 15.125 -6.53125 C 15.125 -7.34375 14.804688 -8.023438 14.171875 -8.578125 C 13.535156 -9.140625 12.742188 -9.550781 11.796875 -9.8125 C 10.847656 -10.070312 9.816406 -10.390625 8.703125 -10.765625 C 7.585938 -11.140625 6.554688 -11.535156 5.609375 -11.953125 C 4.660156 -12.367188 3.867188 -13.039062 3.234375 -13.96875 C 2.597656 -14.90625 2.28125 -16.03125 2.28125 -17.34375 C 2.28125 -19.351562 3.070312 -20.957031 4.65625 -22.15625 C 6.238281 -23.363281 8.335938 -23.96875 10.953125 -23.96875 Z M 10.953125 -23.96875 "/></g></g></g><g fill="#000000" fill-opacity="1"><g transform="translate(33.263112, 222.999374)"><g><path d="M 3.75 -9.546875 L 0.0625 -9.546875 L 0.0625 -10.5 L 8.546875 -10.5 L 8.546875 -9.546875 L 4.859375 -9.546875 L 4.859375 0 L 3.75 0 Z M 3.75 -9.546875 "/></g></g></g><g fill="#000000" fill-opacity="1"><g transform="translate(41.873108, 222.999374)"><g><path d="M 10.484375 -10.5 L 10.484375 0 L 9.390625 0 L 9.390625 -4.84375 L 2.8125 -4.84375 L 2.8125 0 L 1.703125 0 L 1.703125 -10.5 L 2.8125 -10.5 L 2.8125 -5.8125 L 9.390625 -5.8125 L 9.390625 -10.5 Z M 10.484375 -10.5 "/></g></g></g><g fill="#000000" fill-opacity="1"><g transform="translate(54.068092, 222.999374)"><g><path d="M 1.703125 -10.5 L 2.8125 -10.5 L 2.8125 0 L 1.703125 0 Z M 1.703125 -10.5 "/></g></g></g><g fill="#000000" fill-opacity="1"><g transform="translate(58.598087, 222.999374)"><g><path d="M 10.484375 -10.5 L 10.484375 0 L 9.5625 0 L 2.8125 -8.515625 L 2.8125 0 L 1.703125 0 L 1.703125 -10.5 L 2.625 -10.5 L 9.390625 -1.984375 L 9.390625 -10.5 Z M 10.484375 -10.5 "/></g></g></g><g fill="#000000" fill-opacity="1"><g transform="translate(70.79307, 222.999374)"><g><path d="M 4.96875 -4.9375 L 2.8125 -2.765625 L 2.8125 0 L 1.703125 0 L 1.703125 -10.5 L 2.8125 -10.5 L 2.8125 -4.15625 L 8.984375 -10.5 L 10.265625 -10.5 L 5.71875 -5.75 L 10.578125 0 L 9.25 0 Z M 4.96875 -4.9375 "/></g></g></g><g fill="#000000" fill-opacity="1"><g transform="translate(85.388051, 222.999374)"><g><path d="M 6.296875 0.09375 C 5.253906 0.09375 4.3125 -0.140625 3.46875 -0.609375 C 2.625 -1.078125 1.960938 -1.710938 1.484375 -2.515625 C 1.015625 -3.328125 0.78125 -4.238281 0.78125 -5.25 C 0.78125 -6.257812 1.015625 -7.164062 1.484375 -7.96875 C 1.960938 -8.78125 2.625 -9.421875 3.46875 -9.890625 C 4.3125 -10.359375 5.253906 -10.59375 6.296875 -10.59375 C 7.335938 -10.59375 8.273438 -10.359375 9.109375 -9.890625 C 9.941406 -9.429688 10.597656 -8.796875 11.078125 -7.984375 C 11.566406 -7.171875 11.8125 -6.257812 11.8125 -5.25 C 11.8125 -4.238281 11.566406 -3.328125 11.078125 -2.515625 C 10.597656 -1.703125 9.941406 -1.0625 9.109375 -0.59375 C 8.273438 -0.132812 7.335938 0.09375 6.296875 0.09375 Z M 6.296875 -0.90625 C 7.128906 -0.90625 7.878906 -1.09375 8.546875 -1.46875 C 9.222656 -1.84375 9.75 -2.359375 10.125 -3.015625 C 10.5 -3.679688 10.6875 -4.425781 10.6875 -5.25 C 10.6875 -6.070312 10.5 -6.8125 10.125 -7.46875 C 9.75 -8.132812 9.222656 -8.65625 8.546875 -9.03125 C 7.878906 -9.40625 7.128906 -9.59375 6.296875 -9.59375 C 5.472656 -9.59375 4.722656 -9.40625 4.046875 -9.03125 C 3.367188 -8.65625 2.835938 -8.132812 2.453125 -7.46875 C 2.066406 -6.8125 1.875 -6.070312 1.875 -5.25 C 1.875 -4.425781 2.066406 -3.679688 2.453125 -3.015625 C 2.835938 -2.359375 3.367188 -1.84375 4.046875 -1.46875 C 4.722656 -1.09375 5.472656 -0.90625 6.296875 -0.90625 Z M 6.296875 -0.90625 "/></g></g></g><g fill="#000000" fill-opacity="1"><g transform="translate(97.973039, 222.999374)"><g><path d="M 2.8125 -9.546875 L 2.8125 -5.421875 L 8.25 -5.421875 L 8.25 -4.453125 L 2.8125 -4.453125 L 2.8125 0 L 1.703125 0 L 1.703125 -10.5 L 8.90625 -10.5 L 8.90625 -9.546875 Z M 2.8125 -9.546875 "/></g></g></g><g fill="#000000" fill-opacity="1"><g transform="translate(111.398022, 222.999374)"><g><path d="M 1.703125 -10.5 L 2.8125 -10.5 L 2.8125 -0.953125 L 8.703125 -0.953125 L 8.703125 0 L 1.703125 0 Z M 1.703125 -10.5 "/></g></g></g><g fill="#000000" fill-opacity="1"><g transform="translate(120.233009, 222.999374)"><g><path d="M 5.9375 0.09375 C 4.582031 0.09375 3.523438 -0.296875 2.765625 -1.078125 C 2.003906 -1.859375 1.625 -2.992188 1.625 -4.484375 L 1.625 -10.5 L 2.734375 -10.5 L 2.734375 -4.53125 C 2.734375 -3.3125 3.003906 -2.398438 3.546875 -1.796875 C 4.097656 -1.203125 4.894531 -0.90625 5.9375 -0.90625 C 6.988281 -0.90625 7.789062 -1.203125 8.34375 -1.796875 C 8.894531 -2.398438 9.171875 -3.3125 9.171875 -4.53125 L 9.171875 -10.5 L 10.25 -10.5 L 10.25 -4.484375 C 10.25 -2.992188 9.867188 -1.859375 9.109375 -1.078125 C 8.359375 -0.296875 7.300781 0.09375 5.9375 0.09375 Z M 5.9375 0.09375 "/></g></g></g><g fill="#000000" fill-opacity="1"><g transform="translate(132.112994, 222.999374)"><g><path d="M 8.296875 0 L 4.90625 -4.625 L 1.53125 0 L 0.25 0 L 4.25 -5.40625 L 0.515625 -10.5 L 1.78125 -10.5 L 4.953125 -6.203125 L 8.09375 -10.5 L 9.296875 -10.5 L 5.578125 -5.4375 L 9.578125 0 Z M 8.296875 0 "/></g></g></g><g fill="#000000" fill-opacity="1"><g transform="translate(141.952989, 222.999374)"><g><path d="M 5.9375 0.09375 C 4.582031 0.09375 3.523438 -0.296875 2.765625 -1.078125 C 2.003906 -1.859375 1.625 -2.992188 1.625 -4.484375 L 1.625 -10.5 L 2.734375 -10.5 L 2.734375 -4.53125 C 2.734375 -3.3125 3.003906 -2.398438 3.546875 -1.796875 C 4.097656 -1.203125 4.894531 -0.90625 5.9375 -0.90625 C 6.988281 -0.90625 7.789062 -1.203125 8.34375 -1.796875 C 8.894531 -2.398438 9.171875 -3.3125 9.171875 -4.53125 L 9.171875 -10.5 L 10.25 -10.5 L 10.25 -4.484375 C 10.25 -2.992188 9.867188 -1.859375 9.109375 -1.078125 C 8.359375 -0.296875 7.300781 0.09375 5.9375 0.09375 Z M 5.9375 0.09375 "/></g></g></g><g fill="#000000" fill-opacity="1"><g transform="translate(153.832974, 222.999374)"><g><path d="M 8.875 0 L 6.484375 -3.375 C 6.210938 -3.34375 5.929688 -3.328125 5.640625 -3.328125 L 2.8125 -3.328125 L 2.8125 0 L 1.703125 0 L 1.703125 -10.5 L 5.640625 -10.5 C 6.984375 -10.5 8.035156 -10.175781 8.796875 -9.53125 C 9.554688 -8.894531 9.9375 -8.019531 9.9375 -6.90625 C 9.9375 -6.082031 9.726562 -5.382812 9.3125 -4.8125 C 8.894531 -4.25 8.300781 -3.84375 7.53125 -3.59375 L 10.09375 0 Z M 5.609375 -4.28125 C 6.648438 -4.28125 7.441406 -4.507812 7.984375 -4.96875 C 8.535156 -5.425781 8.8125 -6.070312 8.8125 -6.90625 C 8.8125 -7.75 8.535156 -8.398438 7.984375 -8.859375 C 7.441406 -9.316406 6.648438 -9.546875 5.609375 -9.546875 L 2.8125 -9.546875 L 2.8125 -4.28125 Z M 5.609375 -4.28125 "/></g></g></g><g fill="#000000" fill-opacity="1"><g transform="translate(164.677967, 222.999374)"><g><path d="M 5.3125 -3.625 L 5.3125 0 L 4.21875 0 L 4.21875 -3.625 L 0.015625 -10.5 L 1.203125 -10.5 L 4.796875 -4.609375 L 8.40625 -10.5 L 9.515625 -10.5 Z M 5.3125 -3.625 "/></g></g></g><g fill="#000000" fill-opacity="1"><g transform="translate(178.132945, 222.999374)"><g><path d="M 1.703125 -11.125 L 2.703125 -11.125 L 2.703125 2.90625 L 1.703125 2.90625 Z M 1.703125 -11.125 "/></g></g></g><g fill="#000000" fill-opacity="1"><g transform="translate(186.487933, 222.999374)"><g><path d="M 3.75 -9.546875 L 0.0625 -9.546875 L 0.0625 -10.5 L 8.546875 -10.5 L 8.546875 -9.546875 L 4.859375 -9.546875 L 4.859375 0 L 3.75 0 Z M 3.75 -9.546875 "/></g></g></g><g fill="#000000" fill-opacity="1"><g transform="translate(195.097929, 222.999374)"><g><path d="M 10.484375 -10.5 L 10.484375 0 L 9.390625 0 L 9.390625 -4.84375 L 2.8125 -4.84375 L 2.8125 0 L 1.703125 0 L 1.703125 -10.5 L 2.8125 -10.5 L 2.8125 -5.8125 L 9.390625 -5.8125 L 9.390625 -10.5 Z M 10.484375 -10.5 "/></g></g></g><g fill="#000000" fill-opacity="1"><g transform="translate(207.292913, 222.999374)"><g><path d="M 1.703125 -10.5 L 2.8125 -10.5 L 2.8125 0 L 1.703125 0 Z M 1.703125 -10.5 "/></g></g></g><g fill="#000000" fill-opacity="1"><g transform="translate(211.822907, 222.999374)"><g><path d="M 10.484375 -10.5 L 10.484375 0 L 9.5625 0 L 2.8125 -8.515625 L 2.8125 0 L 1.703125 0 L 1.703125 -10.5 L 2.625 -10.5 L 9.390625 -1.984375 L 9.390625 -10.5 Z M 10.484375 -10.5 "/></g></g></g><g fill="#000000" fill-opacity="1"><g transform="translate(224.017891, 222.999374)"><g><path d="M 4.96875 -4.9375 L 2.8125 -2.765625 L 2.8125 0 L 1.703125 0 L 1.703125 -10.5 L 2.8125 -10.5 L 2.8125 -4.15625 L 8.984375 -10.5 L 10.265625 -10.5 L 5.71875 -5.75 L 10.578125 0 L 9.25 0 Z M 4.96875 -4.9375 "/></g></g></g><g fill="#000000" fill-opacity="1"><g transform="translate(238.612861, 222.999374)"><g><path d="M 6.296875 0.09375 C 5.253906 0.09375 4.3125 -0.140625 3.46875 -0.609375 C 2.625 -1.078125 1.960938 -1.710938 1.484375 -2.515625 C 1.015625 -3.328125 0.78125 -4.238281 0.78125 -5.25 C 0.78125 -6.257812 1.015625 -7.164062 1.484375 -7.96875 C 1.960938 -8.78125 2.625 -9.421875 3.46875 -9.890625 C 4.3125 -10.359375 5.253906 -10.59375 6.296875 -10.59375 C 7.335938 -10.59375 8.273438 -10.359375 9.109375 -9.890625 C 9.941406 -9.429688 10.597656 -8.796875 11.078125 -7.984375 C 11.566406 -7.171875 11.8125 -6.257812 11.8125 -5.25 C 11.8125 -4.238281 11.566406 -3.328125 11.078125 -2.515625 C 10.597656 -1.703125 9.941406 -1.0625 9.109375 -0.59375 C 8.273438 -0.132812 7.335938 0.09375 6.296875 0.09375 Z M 6.296875 -0.90625 C 7.128906 -0.90625 7.878906 -1.09375 8.546875 -1.46875 C 9.222656 -1.84375 9.75 -2.359375 10.125 -3.015625 C 10.5 -3.679688 10.6875 -4.425781 10.6875 -5.25 C 10.6875 -6.070312 10.5 -6.8125 10.125 -7.46875 C 9.75 -8.132812 9.222656 -8.65625 8.546875 -9.03125 C 7.878906 -9.40625 7.128906 -9.59375 6.296875 -9.59375 C 5.472656 -9.59375 4.722656 -9.40625 4.046875 -9.03125 C 3.367188 -8.65625 2.835938 -8.132812 2.453125 -7.46875 C 2.066406 -6.8125 1.875 -6.070312 1.875 -5.25 C 1.875 -4.425781 2.066406 -3.679688 2.453125 -3.015625 C 2.835938 -2.359375 3.367188 -1.84375 4.046875 -1.46875 C 4.722656 -1.09375 5.472656 -0.90625 6.296875 -0.90625 Z M 6.296875 -0.90625 "/></g></g></g><g fill="#000000" fill-opacity="1"><g transform="translate(251.197836, 222.999374)"><g><path d="M 2.8125 -9.546875 L 2.8125 -5.421875 L 8.25 -5.421875 L 8.25 -4.453125 L 2.8125 -4.453125 L 2.8125 0 L 1.703125 0 L 1.703125 -10.5 L 8.90625 -10.5 L 8.90625 -9.546875 Z M 2.8125 -9.546875 "/></g></g></g><g fill="#000000" fill-opacity="1"><g transform="translate(264.622807, 222.999374)"><g><path d="M 4.609375 0.09375 C 3.828125 0.09375 3.078125 -0.03125 2.359375 -0.28125 C 1.648438 -0.53125 1.097656 -0.863281 0.703125 -1.28125 L 1.140625 -2.125 C 1.515625 -1.75 2.015625 -1.441406 2.640625 -1.203125 C 3.273438 -0.972656 3.929688 -0.859375 4.609375 -0.859375 C 5.546875 -0.859375 6.25 -1.03125 6.71875 -1.375 C 7.1875 -1.71875 7.421875 -2.164062 7.421875 -2.71875 C 7.421875 -3.132812 7.289062 -3.46875 7.03125 -3.71875 C 6.78125 -3.96875 6.46875 -4.160156 6.09375 -4.296875 C 5.726562 -4.429688 5.21875 -4.578125 4.5625 -4.734375 C 3.769531 -4.941406 3.140625 -5.132812 2.671875 -5.3125 C 2.203125 -5.5 1.796875 -5.78125 1.453125 -6.15625 C 1.117188 -6.539062 0.953125 -7.054688 0.953125 -7.703125 C 0.953125 -8.234375 1.09375 -8.71875 1.375 -9.15625 C 1.65625 -9.59375 2.085938 -9.941406 2.671875 -10.203125 C 3.253906 -10.460938 3.972656 -10.59375 4.828125 -10.59375 C 5.429688 -10.59375 6.019531 -10.507812 6.59375 -10.34375 C 7.164062 -10.175781 7.660156 -9.945312 8.078125 -9.65625 L 7.703125 -8.78125 C 7.265625 -9.0625 6.796875 -9.273438 6.296875 -9.421875 C 5.796875 -9.566406 5.304688 -9.640625 4.828125 -9.640625 C 3.910156 -9.640625 3.21875 -9.460938 2.75 -9.109375 C 2.289062 -8.753906 2.0625 -8.296875 2.0625 -7.734375 C 2.0625 -7.316406 2.1875 -6.976562 2.4375 -6.71875 C 2.6875 -6.46875 3.003906 -6.273438 3.390625 -6.140625 C 3.773438 -6.003906 4.296875 -5.859375 4.953125 -5.703125 C 5.722656 -5.515625 6.34375 -5.328125 6.8125 -5.140625 C 7.289062 -4.953125 7.691406 -4.671875 8.015625 -4.296875 C 8.347656 -3.921875 8.515625 -3.414062 8.515625 -2.78125 C 8.515625 -2.25 8.375 -1.765625 8.09375 -1.328125 C 7.8125 -0.890625 7.375 -0.539062 6.78125 -0.28125 C 6.1875 -0.03125 5.460938 0.09375 4.609375 0.09375 Z M 4.609375 0.09375 "/></g></g></g><g fill="#000000" fill-opacity="1"><g transform="translate(273.847798, 222.999374)"><g><path d="M 5.9375 0.09375 C 4.582031 0.09375 3.523438 -0.296875 2.765625 -1.078125 C 2.003906 -1.859375 1.625 -2.992188 1.625 -4.484375 L 1.625 -10.5 L 2.734375 -10.5 L 2.734375 -4.53125 C 2.734375 -3.3125 3.003906 -2.398438 3.546875 -1.796875 C 4.097656 -1.203125 4.894531 -0.90625 5.9375 -0.90625 C 6.988281 -0.90625 7.789062 -1.203125 8.34375 -1.796875 C 8.894531 -2.398438 9.171875 -3.3125 9.171875 -4.53125 L 9.171875 -10.5 L 10.25 -10.5 L 10.25 -4.484375 C 10.25 -2.992188 9.867188 -1.859375 9.109375 -1.078125 C 8.359375 -0.296875 7.300781 0.09375 5.9375 0.09375 Z M 5.9375 0.09375 "/></g></g></g><g fill="#000000" fill-opacity="1"><g transform="translate(285.727771, 222.999374)"><g><path d="M 5.640625 -10.5 C 6.984375 -10.5 8.035156 -10.175781 8.796875 -9.53125 C 9.554688 -8.894531 9.9375 -8.019531 9.9375 -6.90625 C 9.9375 -5.78125 9.554688 -4.898438 8.796875 -4.265625 C 8.035156 -3.628906 6.984375 -3.3125 5.640625 -3.3125 L 2.8125 -3.3125 L 2.8125 0 L 1.703125 0 L 1.703125 -10.5 Z M 5.609375 -4.296875 C 6.648438 -4.296875 7.441406 -4.519531 7.984375 -4.96875 C 8.535156 -5.425781 8.8125 -6.070312 8.8125 -6.90625 C 8.8125 -7.75 8.535156 -8.398438 7.984375 -8.859375 C 7.441406 -9.316406 6.648438 -9.546875 5.609375 -9.546875 L 2.8125 -9.546875 L 2.8125 -4.296875 Z M 5.609375 -4.296875 "/></g></g></g><g fill="#000000" fill-opacity="1"><g transform="translate(296.49776, 222.999374)"><g><path d="M 8.875 0 L 6.484375 -3.375 C 6.210938 -3.34375 5.929688 -3.328125 5.640625 -3.328125 L 2.8125 -3.328125 L 2.8125 0 L 1.703125 0 L 1.703125 -10.5 L 5.640625 -10.5 C 6.984375 -10.5 8.035156 -10.175781 8.796875 -9.53125 C 9.554688 -8.894531 9.9375 -8.019531 9.9375 -6.90625 C 9.9375 -6.082031 9.726562 -5.382812 9.3125 -4.8125 C 8.894531 -4.25 8.300781 -3.84375 7.53125 -3.59375 L 10.09375 0 Z M 5.609375 -4.28125 C 6.648438 -4.28125 7.441406 -4.507812 7.984375 -4.96875 C 8.535156 -5.425781 8.8125 -6.070312 8.8125 -6.90625 C 8.8125 -7.75 8.535156 -8.398438 7.984375 -8.859375 C 7.441406 -9.316406 6.648438 -9.546875 5.609375 -9.546875 L 2.8125 -9.546875 L 2.8125 -4.28125 Z M 5.609375 -4.28125 "/></g></g></g><g fill="#000000" fill-opacity="1"><g transform="translate(307.342753, 222.999374)"><g><path d="M 9.140625 -0.953125 L 9.140625 0 L 1.703125 0 L 1.703125 -10.5 L 8.90625 -10.5 L 8.90625 -9.546875 L 2.8125 -9.546875 L 2.8125 -5.8125 L 8.25 -5.8125 L 8.25 -4.859375 L 2.8125 -4.859375 L 2.8125 -0.953125 Z M 9.140625 -0.953125 "/></g></g></g><g fill="#000000" fill-opacity="1"><g transform="translate(317.377733, 222.999374)"><g><path d="M 12.609375 -10.5 L 12.609375 0 L 11.546875 0 L 11.546875 -8.40625 L 7.421875 -1.328125 L 6.90625 -1.328125 L 2.78125 -8.359375 L 2.78125 0 L 1.703125 0 L 1.703125 -10.5 L 2.625 -10.5 L 7.1875 -2.71875 L 11.703125 -10.5 Z M 12.609375 -10.5 "/></g></g></g><g fill="#000000" fill-opacity="1"><g transform="translate(331.702714, 222.999374)"><g><path d="M 9.140625 -0.953125 L 9.140625 0 L 1.703125 0 L 1.703125 -10.5 L 8.90625 -10.5 L 8.90625 -9.546875 L 2.8125 -9.546875 L 2.8125 -5.8125 L 8.25 -5.8125 L 8.25 -4.859375 L 2.8125 -4.859375 L 2.8125 -0.953125 Z M 9.140625 -0.953125 "/></g></g></g></svg>